M48
; DRILL file {KiCad (5.1.5)-3} date 2020/03/05 2:28:16
; FORMAT={-:-/ absolute / metric / decimal}
; #@! TF.CreationDate,2020-03-05T02:28:16+09:00
; #@! TF.GenerationSoftware,Kicad,Pcbnew,(5.1.5)-3
; #@! TF.FileFunction,Plated,1,2,PTH
FMAT,2
METRIC
T1C0.300
T2C1.000
%
G90
G05
T1
X112.2Y-55.15
X112.2Y-71.8
X112.2Y-88.45
X112.2Y-105.1
X112.2Y-121.75
X112.2Y-138.4
X112.5Y-58.65
X112.5Y-75.3
X112.5Y-91.95
X112.5Y-108.6
X112.5Y-125.25
X112.5Y-141.9
X113.0Y-49.45
X113.0Y-66.1
X113.0Y-82.75
X113.0Y-99.4
X113.0Y-116.05
X113.0Y-132.7
X115.6Y-54.75
X115.6Y-71.4
X115.6Y-88.05
X115.6Y-104.7
X115.6Y-121.35
X115.6Y-138.0
X120.65Y-49.5
X120.65Y-66.15
X120.65Y-82.8
X120.65Y-99.45
X120.65Y-116.1
X120.65Y-132.75
X123.15Y-49.5
X123.15Y-66.15
X123.15Y-82.8
X123.15Y-99.45
X123.15Y-116.1
X123.15Y-132.75
X125.0Y-56.75
X125.0Y-73.4
X125.0Y-90.05
X125.0Y-106.7
X125.0Y-123.35
X125.0Y-140.0
X127.0Y-58.75
X127.0Y-75.4
X127.0Y-92.05
X127.0Y-108.7
X127.0Y-125.35
X127.0Y-142.0
X129.0Y-56.75
X129.0Y-73.4
X129.0Y-90.05
X129.0Y-106.7
X129.0Y-123.35
X129.0Y-140.0
X131.0Y-58.75
X131.0Y-75.4
X131.0Y-92.05
X131.0Y-108.7
X131.0Y-125.35
X131.0Y-142.0
X135.0Y-58.75
X135.0Y-75.4
X135.0Y-92.05
X135.0Y-108.7
X135.0Y-125.35
X135.0Y-142.0
X137.0Y-56.75
X137.0Y-73.4
X137.0Y-90.05
X137.0Y-106.7
X137.0Y-123.35
X137.0Y-140.0
X138.45Y-49.4
X138.45Y-66.05
X138.45Y-82.7
X138.45Y-99.35
X138.45Y-116.0
X138.45Y-132.65
X139.0Y-58.75
X139.0Y-75.4
X139.0Y-92.05
X139.0Y-108.7
X139.0Y-125.35
X139.0Y-142.0
X141.0Y-56.75
X141.0Y-73.4
X141.0Y-90.05
X141.0Y-106.7
X141.0Y-123.35
X141.0Y-140.0
X143.0Y-58.75
X143.0Y-75.4
X143.0Y-92.05
X143.0Y-108.7
X143.0Y-125.35
X143.0Y-142.0
X145.0Y-56.75
X145.0Y-73.4
X145.0Y-90.05
X145.0Y-106.7
X145.0Y-123.35
X145.0Y-140.0
X146.1Y-49.4
X146.1Y-66.05
X146.1Y-82.7
X146.1Y-99.35
X146.1Y-116.0
X146.1Y-132.65
X147.0Y-58.75
X147.0Y-75.4
X147.0Y-92.05
X147.0Y-108.7
X147.0Y-125.35
X147.0Y-142.0
X149.0Y-56.75
X149.0Y-73.4
X149.0Y-90.05
X149.0Y-106.7
X149.0Y-123.35
X149.0Y-140.0
X151.0Y-58.75
X151.0Y-75.4
X151.0Y-92.05
X151.0Y-108.7
X151.0Y-125.35
X151.0Y-142.0
X153.0Y-56.75
X153.0Y-73.4
X153.0Y-90.05
X153.0Y-106.7
X153.0Y-123.35
X153.0Y-140.0
X155.0Y-58.75
X155.0Y-75.4
X155.0Y-92.05
X155.0Y-108.7
X155.0Y-125.35
X155.0Y-142.0
X156.25Y-49.4
X156.25Y-66.05
X156.25Y-82.7
X156.25Y-99.35
X156.25Y-116.0
X156.25Y-132.65
X157.0Y-56.75
X157.0Y-73.4
X157.0Y-90.05
X157.0Y-106.7
X157.0Y-123.35
X157.0Y-140.0
X159.0Y-58.75
X159.0Y-75.4
X159.0Y-92.05
X159.0Y-108.7
X159.0Y-125.35
X159.0Y-142.0
X161.0Y-56.75
X161.0Y-73.4
X161.0Y-90.05
X161.0Y-106.7
X161.0Y-123.35
X161.0Y-140.0
X163.0Y-58.75
X163.0Y-75.4
X163.0Y-92.05
X163.0Y-108.7
X163.0Y-125.35
X163.0Y-142.0
X163.85Y-49.4
X163.85Y-66.05
X163.85Y-82.7
X163.85Y-99.35
X163.85Y-116.0
X163.85Y-132.65
X166.0Y-56.75
X166.0Y-73.4
X166.0Y-90.05
X166.0Y-106.7
X166.0Y-123.35
X166.0Y-140.0
X168.0Y-58.75
X168.0Y-75.4
X168.0Y-92.05
X168.0Y-108.7
X168.0Y-125.35
X168.0Y-142.0
X172.0Y-58.75
X172.0Y-75.4
X172.0Y-92.05
X172.0Y-108.7
X172.0Y-125.35
X172.0Y-142.0
X174.0Y-56.75
X174.0Y-73.4
X174.0Y-90.05
X174.0Y-106.7
X174.0Y-123.35
X174.0Y-140.0
X176.0Y-58.75
X176.0Y-75.4
X176.0Y-92.05
X176.0Y-108.7
X176.0Y-125.35
X176.0Y-142.0
X180.0Y-58.75
X180.0Y-75.4
X180.0Y-92.05
X180.0Y-108.7
X180.0Y-125.35
X180.0Y-142.0
X184.0Y-58.75
X184.0Y-75.4
X184.0Y-92.05
X184.0Y-108.7
X184.0Y-125.35
X184.0Y-142.0
X186.0Y-56.75
X186.0Y-73.4
X186.0Y-90.05
X186.0Y-106.7
X186.0Y-123.35
X186.0Y-140.0
X188.0Y-58.75
X188.0Y-75.4
X188.0Y-92.05
X188.0Y-108.7
X188.0Y-125.35
X188.0Y-142.0
X190.0Y-56.75
X190.0Y-73.4
X190.0Y-90.05
X190.0Y-106.7
X190.0Y-123.35
X190.0Y-140.0
X192.0Y-58.75
X192.0Y-75.4
X192.0Y-92.05
X192.0Y-108.7
X192.0Y-125.35
X192.0Y-142.0
T2
X111.76Y-100.76
X111.76Y-103.3
X114.3Y-100.76
X114.3Y-103.3
X116.84Y-100.76
X116.84Y-103.3
X119.38Y-100.76
X119.38Y-103.3
X121.92Y-100.76
X121.92Y-103.3
X124.46Y-100.76
X124.46Y-103.3
X127.0Y-100.76
X127.0Y-103.3
X129.54Y-100.76
X129.54Y-103.3
X132.08Y-100.76
X132.08Y-103.3
X134.62Y-100.76
X134.62Y-103.3
X137.16Y-100.76
X137.16Y-103.3
X139.7Y-100.76
X139.7Y-103.3
X142.24Y-100.76
X142.24Y-103.3
X144.78Y-100.76
X144.78Y-103.3
X147.32Y-100.76
X147.32Y-103.3
X149.86Y-100.76
X149.86Y-103.3
X152.4Y-100.76
X152.4Y-103.3
X154.94Y-100.76
X154.94Y-103.3
X157.48Y-100.76
X157.48Y-103.3
X160.02Y-100.76
X160.02Y-103.3
X162.56Y-100.76
X162.56Y-103.3
X165.1Y-100.76
X165.1Y-103.3
X167.64Y-100.76
X167.64Y-103.3
X170.18Y-100.76
X170.18Y-103.3
X172.72Y-100.76
X172.72Y-103.3
X175.26Y-100.76
X175.26Y-103.3
X177.8Y-100.76
X177.8Y-103.3
X180.34Y-100.76
X180.34Y-103.3
X182.88Y-100.76
X182.88Y-103.3
X185.42Y-100.76
X185.42Y-103.3
X187.96Y-100.76
X187.96Y-103.3
X190.5Y-100.76
X190.5Y-103.3
X111.76Y-67.46
X111.76Y-70.0
X114.3Y-67.46
X114.3Y-70.0
X116.84Y-67.46
X116.84Y-70.0
X119.38Y-67.46
X119.38Y-70.0
X121.92Y-67.46
X121.92Y-70.0
X124.46Y-67.46
X124.46Y-70.0
X127.0Y-67.46
X127.0Y-70.0
X129.54Y-67.46
X129.54Y-70.0
X132.08Y-67.46
X132.08Y-70.0
X134.62Y-67.46
X134.62Y-70.0
X137.16Y-67.46
X137.16Y-70.0
X139.7Y-67.46
X139.7Y-70.0
X142.24Y-67.46
X142.24Y-70.0
X144.78Y-67.46
X144.78Y-70.0
X147.32Y-67.46
X147.32Y-70.0
X149.86Y-67.46
X149.86Y-70.0
X152.4Y-67.46
X152.4Y-70.0
X154.94Y-67.46
X154.94Y-70.0
X157.48Y-67.46
X157.48Y-70.0
X160.02Y-67.46
X160.02Y-70.0
X162.56Y-67.46
X162.56Y-70.0
X165.1Y-67.46
X165.1Y-70.0
X167.64Y-67.46
X167.64Y-70.0
X170.18Y-67.46
X170.18Y-70.0
X172.72Y-67.46
X172.72Y-70.0
X175.26Y-67.46
X175.26Y-70.0
X177.8Y-67.46
X177.8Y-70.0
X180.34Y-67.46
X180.34Y-70.0
X182.88Y-67.46
X182.88Y-70.0
X185.42Y-67.46
X185.42Y-70.0
X187.96Y-67.46
X187.96Y-70.0
X190.5Y-67.46
X190.5Y-70.0
X111.76Y-117.41
X111.76Y-119.95
X114.3Y-117.41
X114.3Y-119.95
X116.84Y-117.41
X116.84Y-119.95
X119.38Y-117.41
X119.38Y-119.95
X121.92Y-117.41
X121.92Y-119.95
X124.46Y-117.41
X124.46Y-119.95
X127.0Y-117.41
X127.0Y-119.95
X129.54Y-117.41
X129.54Y-119.95
X132.08Y-117.41
X132.08Y-119.95
X134.62Y-117.41
X134.62Y-119.95
X137.16Y-117.41
X137.16Y-119.95
X139.7Y-117.41
X139.7Y-119.95
X142.24Y-117.41
X142.24Y-119.95
X144.78Y-117.41
X144.78Y-119.95
X147.32Y-117.41
X147.32Y-119.95
X149.86Y-117.41
X149.86Y-119.95
X152.4Y-117.41
X152.4Y-119.95
X154.94Y-117.41
X154.94Y-119.95
X157.48Y-117.41
X157.48Y-119.95
X160.02Y-117.41
X160.02Y-119.95
X162.56Y-117.41
X162.56Y-119.95
X165.1Y-117.41
X165.1Y-119.95
X167.64Y-117.41
X167.64Y-119.95
X170.18Y-117.41
X170.18Y-119.95
X172.72Y-117.41
X172.72Y-119.95
X175.26Y-117.41
X175.26Y-119.95
X177.8Y-117.41
X177.8Y-119.95
X180.34Y-117.41
X180.34Y-119.95
X182.88Y-117.41
X182.88Y-119.95
X185.42Y-117.41
X185.42Y-119.95
X187.96Y-117.41
X187.96Y-119.95
X190.5Y-117.41
X190.5Y-119.95
X111.76Y-84.11
X111.76Y-86.65
X114.3Y-84.11
X114.3Y-86.65
X116.84Y-84.11
X116.84Y-86.65
X119.38Y-84.11
X119.38Y-86.65
X121.92Y-84.11
X121.92Y-86.65
X124.46Y-84.11
X124.46Y-86.65
X127.0Y-84.11
X127.0Y-86.65
X129.54Y-84.11
X129.54Y-86.65
X132.08Y-84.11
X132.08Y-86.65
X134.62Y-84.11
X134.62Y-86.65
X137.16Y-84.11
X137.16Y-86.65
X139.7Y-84.11
X139.7Y-86.65
X142.24Y-84.11
X142.24Y-86.65
X144.78Y-84.11
X144.78Y-86.65
X147.32Y-84.11
X147.32Y-86.65
X149.86Y-84.11
X149.86Y-86.65
X152.4Y-84.11
X152.4Y-86.65
X154.94Y-84.11
X154.94Y-86.65
X157.48Y-84.11
X157.48Y-86.65
X160.02Y-84.11
X160.02Y-86.65
X162.56Y-84.11
X162.56Y-86.65
X165.1Y-84.11
X165.1Y-86.65
X167.64Y-84.11
X167.64Y-86.65
X170.18Y-84.11
X170.18Y-86.65
X172.72Y-84.11
X172.72Y-86.65
X175.26Y-84.11
X175.26Y-86.65
X177.8Y-84.11
X177.8Y-86.65
X180.34Y-84.11
X180.34Y-86.65
X182.88Y-84.11
X182.88Y-86.65
X185.42Y-84.11
X185.42Y-86.65
X187.96Y-84.11
X187.96Y-86.65
X190.5Y-84.11
X190.5Y-86.65
X111.76Y-134.06
X111.76Y-136.6
X114.3Y-134.06
X114.3Y-136.6
X116.84Y-134.06
X116.84Y-136.6
X119.38Y-134.06
X119.38Y-136.6
X121.92Y-134.06
X121.92Y-136.6
X124.46Y-134.06
X124.46Y-136.6
X127.0Y-134.06
X127.0Y-136.6
X129.54Y-134.06
X129.54Y-136.6
X132.08Y-134.06
X132.08Y-136.6
X134.62Y-134.06
X134.62Y-136.6
X137.16Y-134.06
X137.16Y-136.6
X139.7Y-134.06
X139.7Y-136.6
X142.24Y-134.06
X142.24Y-136.6
X144.78Y-134.06
X144.78Y-136.6
X147.32Y-134.06
X147.32Y-136.6
X149.86Y-134.06
X149.86Y-136.6
X152.4Y-134.06
X152.4Y-136.6
X154.94Y-134.06
X154.94Y-136.6
X157.48Y-134.06
X157.48Y-136.6
X160.02Y-134.06
X160.02Y-136.6
X162.56Y-134.06
X162.56Y-136.6
X165.1Y-134.06
X165.1Y-136.6
X167.64Y-134.06
X167.64Y-136.6
X170.18Y-134.06
X170.18Y-136.6
X172.72Y-134.06
X172.72Y-136.6
X175.26Y-134.06
X175.26Y-136.6
X177.8Y-134.06
X177.8Y-136.6
X180.34Y-134.06
X180.34Y-136.6
X182.88Y-134.06
X182.88Y-136.6
X185.42Y-134.06
X185.42Y-136.6
X187.96Y-134.06
X187.96Y-136.6
X190.5Y-134.06
X190.5Y-136.6
X111.76Y-50.81
X111.76Y-53.35
X114.3Y-50.81
X114.3Y-53.35
X116.84Y-50.81
X116.84Y-53.35
X119.38Y-50.81
X119.38Y-53.35
X121.92Y-50.81
X121.92Y-53.35
X124.46Y-50.81
X124.46Y-53.35
X127.0Y-50.81
X127.0Y-53.35
X129.54Y-50.81
X129.54Y-53.35
X132.08Y-50.81
X132.08Y-53.35
X134.62Y-50.81
X134.62Y-53.35
X137.16Y-50.81
X137.16Y-53.35
X139.7Y-50.81
X139.7Y-53.35
X142.24Y-50.81
X142.24Y-53.35
X144.78Y-50.81
X144.78Y-53.35
X147.32Y-50.81
X147.32Y-53.35
X149.86Y-50.81
X149.86Y-53.35
X152.4Y-50.81
X152.4Y-53.35
X154.94Y-50.81
X154.94Y-53.35
X157.48Y-50.81
X157.48Y-53.35
X160.02Y-50.81
X160.02Y-53.35
X162.56Y-50.81
X162.56Y-53.35
X165.1Y-50.81
X165.1Y-53.35
X167.64Y-50.81
X167.64Y-53.35
X170.18Y-50.81
X170.18Y-53.35
X172.72Y-50.81
X172.72Y-53.35
X175.26Y-50.81
X175.26Y-53.35
X177.8Y-50.81
X177.8Y-53.35
X180.34Y-50.81
X180.34Y-53.35
X182.88Y-50.81
X182.88Y-53.35
X185.42Y-50.81
X185.42Y-53.35
X187.96Y-50.81
X187.96Y-53.35
X190.5Y-50.81
X190.5Y-53.35
T0
M30
