M48
METRIC,TZ
T1C0.300
T2C1.000
%
G90
G05
T1
X112200Y-55150
X112200Y-71800
X112200Y-88450
X112200Y-105100
X112200Y-121750
X112200Y-138400
X112500Y-58650
X112500Y-75300
X112500Y-91950
X112500Y-108600
X112500Y-125250
X112500Y-141900
X113000Y-49450
X113000Y-66100
X113000Y-82750
X113000Y-99400
X113000Y-116050
X113000Y-132700
X115600Y-54750
X115600Y-71400
X115600Y-88050
X115600Y-104700
X115600Y-121350
X115600Y-138000
X120650Y-49500
X120650Y-66150
X120650Y-82800
X120650Y-99450
X120650Y-116100
X120650Y-132750
X123150Y-49500
X123150Y-66150
X123150Y-82800
X123150Y-99450
X123150Y-116100
X123150Y-132750
X125000Y-56750
X125000Y-73400
X125000Y-90050
X125000Y-106700
X125000Y-123350
X125000Y-140000
X127000Y-58750
X127000Y-75400
X127000Y-92050
X127000Y-108700
X127000Y-125350
X127000Y-142000
X129000Y-56750
X129000Y-73400
X129000Y-90050
X129000Y-106700
X129000Y-123350
X129000Y-140000
X131000Y-58750
X131000Y-75400
X131000Y-92050
X131000Y-108700
X131000Y-125350
X131000Y-142000
X135000Y-58750
X135000Y-75400
X135000Y-92050
X135000Y-108700
X135000Y-125350
X135000Y-142000
X137000Y-56750
X137000Y-73400
X137000Y-90050
X137000Y-106700
X137000Y-123350
X137000Y-140000
X138450Y-49400
X138450Y-66050
X138450Y-82700
X138450Y-99350
X138450Y-116000
X138450Y-132650
X139000Y-58750
X139000Y-75400
X139000Y-92050
X139000Y-108700
X139000Y-125350
X139000Y-142000
X141000Y-56750
X141000Y-73400
X141000Y-90050
X141000Y-106700
X141000Y-123350
X141000Y-140000
X143000Y-58750
X143000Y-75400
X143000Y-92050
X143000Y-108700
X143000Y-125350
X143000Y-142000
X145000Y-56750
X145000Y-73400
X145000Y-90050
X145000Y-106700
X145000Y-123350
X145000Y-140000
X146100Y-49400
X146100Y-66050
X146100Y-82700
X146100Y-99350
X146100Y-116000
X146100Y-132650
X147000Y-58750
X147000Y-75400
X147000Y-92050
X147000Y-108700
X147000Y-125350
X147000Y-142000
X149000Y-56750
X149000Y-73400
X149000Y-90050
X149000Y-106700
X149000Y-123350
X149000Y-140000
X151000Y-58750
X151000Y-75400
X151000Y-92050
X151000Y-108700
X151000Y-125350
X151000Y-142000
X153000Y-56750
X153000Y-73400
X153000Y-90050
X153000Y-106700
X153000Y-123350
X153000Y-140000
X155000Y-58750
X155000Y-75400
X155000Y-92050
X155000Y-108700
X155000Y-125350
X155000Y-142000
X156250Y-49400
X156250Y-66050
X156250Y-82700
X156250Y-99350
X156250Y-116000
X156250Y-132650
X157000Y-56750
X157000Y-73400
X157000Y-90050
X157000Y-106700
X157000Y-123350
X157000Y-140000
X159000Y-58750
X159000Y-75400
X159000Y-92050
X159000Y-108700
X159000Y-125350
X159000Y-142000
X161000Y-56750
X161000Y-73400
X161000Y-90050
X161000Y-106700
X161000Y-123350
X161000Y-140000
X163000Y-58750
X163000Y-75400
X163000Y-92050
X163000Y-108700
X163000Y-125350
X163000Y-142000
X163850Y-49400
X163850Y-66050
X163850Y-82700
X163850Y-99350
X163850Y-116000
X163850Y-132650
X166000Y-56750
X166000Y-73400
X166000Y-90050
X166000Y-106700
X166000Y-123350
X166000Y-140000
X168000Y-58750
X168000Y-75400
X168000Y-92050
X168000Y-108700
X168000Y-125350
X168000Y-142000
X172000Y-58750
X172000Y-75400
X172000Y-92050
X172000Y-108700
X172000Y-125350
X172000Y-142000
X174000Y-56750
X174000Y-73400
X174000Y-90050
X174000Y-106700
X174000Y-123350
X174000Y-140000
X176000Y-58750
X176000Y-75400
X176000Y-92050
X176000Y-108700
X176000Y-125350
X176000Y-142000
X180000Y-58750
X180000Y-75400
X180000Y-92050
X180000Y-108700
X180000Y-125350
X180000Y-142000
X184000Y-58750
X184000Y-75400
X184000Y-92050
X184000Y-108700
X184000Y-125350
X184000Y-142000
X186000Y-56750
X186000Y-73400
X186000Y-90050
X186000Y-106700
X186000Y-123350
X186000Y-140000
X188000Y-58750
X188000Y-75400
X188000Y-92050
X188000Y-108700
X188000Y-125350
X188000Y-142000
X190000Y-56750
X190000Y-73400
X190000Y-90050
X190000Y-106700
X190000Y-123350
X190000Y-140000
X192000Y-58750
X192000Y-75400
X192000Y-92050
X192000Y-108700
X192000Y-125350
X192000Y-142000
T2
X111760Y-100760
X111760Y-103300
X114300Y-100760
X114300Y-103300
X116840Y-100760
X116840Y-103300
X119380Y-100760
X119380Y-103300
X121920Y-100760
X121920Y-103300
X124460Y-100760
X124460Y-103300
X127000Y-100760
X127000Y-103300
X129540Y-100760
X129540Y-103300
X132080Y-100760
X132080Y-103300
X134620Y-100760
X134620Y-103300
X137160Y-100760
X137160Y-103300
X139700Y-100760
X139700Y-103300
X142240Y-100760
X142240Y-103300
X144780Y-100760
X144780Y-103300
X147320Y-100760
X147320Y-103300
X149860Y-100760
X149860Y-103300
X152400Y-100760
X152400Y-103300
X154940Y-100760
X154940Y-103300
X157480Y-100760
X157480Y-103300
X160020Y-100760
X160020Y-103300
X162560Y-100760
X162560Y-103300
X165100Y-100760
X165100Y-103300
X167640Y-100760
X167640Y-103300
X170180Y-100760
X170180Y-103300
X172720Y-100760
X172720Y-103300
X175260Y-100760
X175260Y-103300
X177800Y-100760
X177800Y-103300
X180340Y-100760
X180340Y-103300
X182880Y-100760
X182880Y-103300
X185420Y-100760
X185420Y-103300
X187960Y-100760
X187960Y-103300
X190500Y-100760
X190500Y-103300
X111760Y-67460
X111760Y-70000
X114300Y-67460
X114300Y-70000
X116840Y-67460
X116840Y-70000
X119380Y-67460
X119380Y-70000
X121920Y-67460
X121920Y-70000
X124460Y-67460
X124460Y-70000
X127000Y-67460
X127000Y-70000
X129540Y-67460
X129540Y-70000
X132080Y-67460
X132080Y-70000
X134620Y-67460
X134620Y-70000
X137160Y-67460
X137160Y-70000
X139700Y-67460
X139700Y-70000
X142240Y-67460
X142240Y-70000
X144780Y-67460
X144780Y-70000
X147320Y-67460
X147320Y-70000
X149860Y-67460
X149860Y-70000
X152400Y-67460
X152400Y-70000
X154940Y-67460
X154940Y-70000
X157480Y-67460
X157480Y-70000
X160020Y-67460
X160020Y-70000
X162560Y-67460
X162560Y-70000
X165100Y-67460
X165100Y-70000
X167640Y-67460
X167640Y-70000
X170180Y-67460
X170180Y-70000
X172720Y-67460
X172720Y-70000
X175260Y-67460
X175260Y-70000
X177800Y-67460
X177800Y-70000
X180340Y-67460
X180340Y-70000
X182880Y-67460
X182880Y-70000
X185420Y-67460
X185420Y-70000
X187960Y-67460
X187960Y-70000
X190500Y-67460
X190500Y-70000
X111760Y-117410
X111760Y-119950
X114300Y-117410
X114300Y-119950
X116840Y-117410
X116840Y-119950
X119380Y-117410
X119380Y-119950
X121920Y-117410
X121920Y-119950
X124460Y-117410
X124460Y-119950
X127000Y-117410
X127000Y-119950
X129540Y-117410
X129540Y-119950
X132080Y-117410
X132080Y-119950
X134620Y-117410
X134620Y-119950
X137160Y-117410
X137160Y-119950
X139700Y-117410
X139700Y-119950
X142240Y-117410
X142240Y-119950
X144780Y-117410
X144780Y-119950
X147320Y-117410
X147320Y-119950
X149860Y-117410
X149860Y-119950
X152400Y-117410
X152400Y-119950
X154940Y-117410
X154940Y-119950
X157480Y-117410
X157480Y-119950
X160020Y-117410
X160020Y-119950
X162560Y-117410
X162560Y-119950
X165100Y-117410
X165100Y-119950
X167640Y-117410
X167640Y-119950
X170180Y-117410
X170180Y-119950
X172720Y-117410
X172720Y-119950
X175260Y-117410
X175260Y-119950
X177800Y-117410
X177800Y-119950
X180340Y-117410
X180340Y-119950
X182880Y-117410
X182880Y-119950
X185420Y-117410
X185420Y-119950
X187960Y-117410
X187960Y-119950
X190500Y-117410
X190500Y-119950
X111760Y-84110
X111760Y-86650
X114300Y-84110
X114300Y-86650
X116840Y-84110
X116840Y-86650
X119380Y-84110
X119380Y-86650
X121920Y-84110
X121920Y-86650
X124460Y-84110
X124460Y-86650
X127000Y-84110
X127000Y-86650
X129540Y-84110
X129540Y-86650
X132080Y-84110
X132080Y-86650
X134620Y-84110
X134620Y-86650
X137160Y-84110
X137160Y-86650
X139700Y-84110
X139700Y-86650
X142240Y-84110
X142240Y-86650
X144780Y-84110
X144780Y-86650
X147320Y-84110
X147320Y-86650
X149860Y-84110
X149860Y-86650
X152400Y-84110
X152400Y-86650
X154940Y-84110
X154940Y-86650
X157480Y-84110
X157480Y-86650
X160020Y-84110
X160020Y-86650
X162560Y-84110
X162560Y-86650
X165100Y-84110
X165100Y-86650
X167640Y-84110
X167640Y-86650
X170180Y-84110
X170180Y-86650
X172720Y-84110
X172720Y-86650
X175260Y-84110
X175260Y-86650
X177800Y-84110
X177800Y-86650
X180340Y-84110
X180340Y-86650
X182880Y-84110
X182880Y-86650
X185420Y-84110
X185420Y-86650
X187960Y-84110
X187960Y-86650
X190500Y-84110
X190500Y-86650
X111760Y-134060
X111760Y-136600
X114300Y-134060
X114300Y-136600
X116840Y-134060
X116840Y-136600
X119380Y-134060
X119380Y-136600
X121920Y-134060
X121920Y-136600
X124460Y-134060
X124460Y-136600
X127000Y-134060
X127000Y-136600
X129540Y-134060
X129540Y-136600
X132080Y-134060
X132080Y-136600
X134620Y-134060
X134620Y-136600
X137160Y-134060
X137160Y-136600
X139700Y-134060
X139700Y-136600
X142240Y-134060
X142240Y-136600
X144780Y-134060
X144780Y-136600
X147320Y-134060
X147320Y-136600
X149860Y-134060
X149860Y-136600
X152400Y-134060
X152400Y-136600
X154940Y-134060
X154940Y-136600
X157480Y-134060
X157480Y-136600
X160020Y-134060
X160020Y-136600
X162560Y-134060
X162560Y-136600
X165100Y-134060
X165100Y-136600
X167640Y-134060
X167640Y-136600
X170180Y-134060
X170180Y-136600
X172720Y-134060
X172720Y-136600
X175260Y-134060
X175260Y-136600
X177800Y-134060
X177800Y-136600
X180340Y-134060
X180340Y-136600
X182880Y-134060
X182880Y-136600
X185420Y-134060
X185420Y-136600
X187960Y-134060
X187960Y-136600
X190500Y-134060
X190500Y-136600
X111760Y-50810
X111760Y-53350
X114300Y-50810
X114300Y-53350
X116840Y-50810
X116840Y-53350
X119380Y-50810
X119380Y-53350
X121920Y-50810
X121920Y-53350
X124460Y-50810
X124460Y-53350
X127000Y-50810
X127000Y-53350
X129540Y-50810
X129540Y-53350
X132080Y-50810
X132080Y-53350
X134620Y-50810
X134620Y-53350
X137160Y-50810
X137160Y-53350
X139700Y-50810
X139700Y-53350
X142240Y-50810
X142240Y-53350
X144780Y-50810
X144780Y-53350
X147320Y-50810
X147320Y-53350
X149860Y-50810
X149860Y-53350
X152400Y-50810
X152400Y-53350
X154940Y-50810
X154940Y-53350
X157480Y-50810
X157480Y-53350
X160020Y-50810
X160020Y-53350
X162560Y-50810
X162560Y-53350
X165100Y-50810
X165100Y-53350
X167640Y-50810
X167640Y-53350
X170180Y-50810
X170180Y-53350
X172720Y-50810
X172720Y-53350
X175260Y-50810
X175260Y-53350
X177800Y-50810
X177800Y-53350
X180340Y-50810
X180340Y-53350
X182880Y-50810
X182880Y-53350
X185420Y-50810
X185420Y-53350
X187960Y-50810
X187960Y-53350
X190500Y-50810
X190500Y-53350
T0
M30
