M48
; DRILL file {KiCad (5.1.5)-3} date 2019/12/27 7:12:34
; FORMAT={-:-/ absolute / metric / decimal}
; #@! TF.CreationDate,2019-12-27T07:12:34+09:00
; #@! TF.GenerationSoftware,Kicad,Pcbnew,(5.1.5)-3
FMAT,2
METRIC
T1C0.400
T2C1.000
%
G90
G05
T1
X113.0Y-56.25
X113.0Y-59.25
X113.0Y-72.8
X113.0Y-75.8
X113.0Y-89.35
X113.0Y-92.35
X113.0Y-105.9
X113.0Y-108.9
X113.0Y-122.45
X113.0Y-125.45
X113.0Y-139.0
X113.0Y-142.0
X124.0Y-59.25
X124.0Y-75.8
X124.0Y-92.35
X124.0Y-108.9
X124.0Y-125.45
X124.0Y-142.0
X125.0Y-57.25
X125.0Y-73.8
X125.0Y-90.35
X125.0Y-106.9
X125.0Y-123.45
X125.0Y-140.0
X126.0Y-59.25
X126.0Y-75.8
X126.0Y-92.35
X126.0Y-108.9
X126.0Y-125.45
X126.0Y-142.0
X128.0Y-59.25
X128.0Y-75.8
X128.0Y-92.35
X128.0Y-108.9
X128.0Y-125.45
X128.0Y-142.0
X129.0Y-57.25
X129.0Y-73.8
X129.0Y-90.35
X129.0Y-106.9
X129.0Y-123.45
X129.0Y-140.0
X130.0Y-59.25
X130.0Y-75.8
X130.0Y-92.35
X130.0Y-108.9
X130.0Y-125.45
X130.0Y-142.0
X131.0Y-57.25
X131.0Y-73.8
X131.0Y-90.35
X131.0Y-106.9
X131.0Y-123.45
X131.0Y-140.0
X132.0Y-59.25
X132.0Y-75.8
X132.0Y-92.35
X132.0Y-108.9
X132.0Y-125.45
X132.0Y-142.0
X133.0Y-57.25
X133.0Y-73.8
X133.0Y-90.35
X133.0Y-106.9
X133.0Y-123.45
X133.0Y-140.0
X134.0Y-59.25
X134.0Y-75.8
X134.0Y-92.35
X134.0Y-108.9
X134.0Y-125.45
X134.0Y-142.0
X135.0Y-57.25
X135.0Y-73.8
X135.0Y-90.35
X135.0Y-106.9
X135.0Y-123.45
X135.0Y-140.0
X136.0Y-59.25
X136.0Y-75.8
X136.0Y-92.35
X136.0Y-108.9
X136.0Y-125.45
X136.0Y-142.0
X137.0Y-57.25
X137.0Y-73.8
X137.0Y-90.35
X137.0Y-106.9
X137.0Y-123.45
X137.0Y-140.0
X139.0Y-57.25
X139.0Y-73.8
X139.0Y-90.35
X139.0Y-106.9
X139.0Y-123.45
X139.0Y-140.0
X140.0Y-59.25
X140.0Y-75.8
X140.0Y-92.35
X140.0Y-108.9
X140.0Y-125.45
X140.0Y-142.0
X141.0Y-57.25
X141.0Y-73.8
X141.0Y-90.35
X141.0Y-106.9
X141.0Y-123.45
X141.0Y-140.0
X142.0Y-59.25
X142.0Y-75.8
X142.0Y-92.35
X142.0Y-108.9
X142.0Y-125.45
X142.0Y-142.0
X143.0Y-57.25
X143.0Y-73.8
X143.0Y-90.35
X143.0Y-106.9
X143.0Y-123.45
X143.0Y-140.0
X144.0Y-59.25
X144.0Y-75.8
X144.0Y-92.35
X144.0Y-108.9
X144.0Y-125.45
X144.0Y-142.0
X145.0Y-57.25
X145.0Y-73.8
X145.0Y-90.35
X145.0Y-106.9
X145.0Y-123.45
X145.0Y-140.0
X146.0Y-59.25
X146.0Y-75.8
X146.0Y-92.35
X146.0Y-108.9
X146.0Y-125.45
X146.0Y-142.0
X147.0Y-57.25
X147.0Y-73.8
X147.0Y-90.35
X147.0Y-106.9
X147.0Y-123.45
X147.0Y-140.0
X148.0Y-59.25
X148.0Y-75.8
X148.0Y-92.35
X148.0Y-108.9
X148.0Y-125.45
X148.0Y-142.0
X149.0Y-57.25
X149.0Y-73.8
X149.0Y-90.35
X149.0Y-106.9
X149.0Y-123.45
X149.0Y-140.0
X150.0Y-59.25
X150.0Y-75.8
X150.0Y-92.35
X150.0Y-108.9
X150.0Y-125.45
X150.0Y-142.0
X151.0Y-57.25
X151.0Y-73.8
X151.0Y-90.35
X151.0Y-106.9
X151.0Y-123.45
X151.0Y-140.0
X152.0Y-59.25
X152.0Y-75.8
X152.0Y-92.35
X152.0Y-108.9
X152.0Y-125.45
X152.0Y-142.0
X153.0Y-57.25
X153.0Y-73.8
X153.0Y-90.35
X153.0Y-106.9
X153.0Y-123.45
X153.0Y-140.0
X154.0Y-59.25
X154.0Y-75.8
X154.0Y-92.35
X154.0Y-108.9
X154.0Y-125.45
X154.0Y-142.0
X155.0Y-57.25
X155.0Y-73.8
X155.0Y-90.35
X155.0Y-106.9
X155.0Y-123.45
X155.0Y-140.0
X156.0Y-59.25
X156.0Y-75.8
X156.0Y-92.35
X156.0Y-108.9
X156.0Y-125.45
X156.0Y-142.0
X157.0Y-57.25
X157.0Y-73.8
X157.0Y-90.35
X157.0Y-106.9
X157.0Y-123.45
X157.0Y-140.0
X158.0Y-59.25
X158.0Y-75.8
X158.0Y-92.35
X158.0Y-108.9
X158.0Y-125.45
X158.0Y-142.0
X159.0Y-57.25
X159.0Y-73.8
X159.0Y-90.35
X159.0Y-106.9
X159.0Y-123.45
X159.0Y-140.0
X160.0Y-59.25
X160.0Y-75.8
X160.0Y-92.35
X160.0Y-108.9
X160.0Y-125.45
X160.0Y-142.0
X161.0Y-57.25
X161.0Y-73.8
X161.0Y-90.35
X161.0Y-106.9
X161.0Y-123.45
X161.0Y-140.0
X162.0Y-59.25
X162.0Y-75.8
X162.0Y-92.35
X162.0Y-108.9
X162.0Y-125.45
X162.0Y-142.0
X163.0Y-57.25
X163.0Y-73.8
X163.0Y-90.35
X163.0Y-106.9
X163.0Y-123.45
X163.0Y-140.0
X165.0Y-57.25
X165.0Y-73.8
X165.0Y-90.35
X165.0Y-106.9
X165.0Y-123.45
X165.0Y-140.0
X166.0Y-59.25
X166.0Y-75.8
X166.0Y-92.35
X166.0Y-108.9
X166.0Y-125.45
X166.0Y-142.0
X167.0Y-57.25
X167.0Y-73.8
X167.0Y-90.35
X167.0Y-106.9
X167.0Y-123.45
X167.0Y-140.0
X168.0Y-59.25
X168.0Y-75.8
X168.0Y-92.35
X168.0Y-108.9
X168.0Y-125.45
X168.0Y-142.0
X169.0Y-57.25
X169.0Y-73.8
X169.0Y-90.35
X169.0Y-106.9
X169.0Y-123.45
X169.0Y-140.0
X170.0Y-59.25
X170.0Y-75.8
X170.0Y-92.35
X170.0Y-108.9
X170.0Y-125.45
X170.0Y-142.0
X171.0Y-57.25
X171.0Y-73.8
X171.0Y-90.35
X171.0Y-106.9
X171.0Y-123.45
X171.0Y-140.0
X172.0Y-59.25
X172.0Y-75.8
X172.0Y-92.35
X172.0Y-108.9
X172.0Y-125.45
X172.0Y-142.0
X173.0Y-57.25
X173.0Y-73.8
X173.0Y-90.35
X173.0Y-106.9
X173.0Y-123.45
X173.0Y-140.0
X174.0Y-59.25
X174.0Y-75.8
X174.0Y-92.35
X174.0Y-108.9
X174.0Y-125.45
X174.0Y-142.0
X175.0Y-57.25
X175.0Y-73.8
X175.0Y-90.35
X175.0Y-106.9
X175.0Y-123.45
X175.0Y-140.0
X176.0Y-59.25
X176.0Y-75.8
X176.0Y-92.35
X176.0Y-108.9
X176.0Y-125.45
X176.0Y-142.0
X177.0Y-57.25
X177.0Y-73.8
X177.0Y-90.35
X177.0Y-106.9
X177.0Y-123.45
X177.0Y-140.0
X178.0Y-59.25
X178.0Y-75.8
X178.0Y-92.35
X178.0Y-108.9
X178.0Y-125.45
X178.0Y-142.0
X179.0Y-57.25
X179.0Y-73.8
X179.0Y-90.35
X179.0Y-106.9
X179.0Y-123.45
X179.0Y-140.0
X180.0Y-59.25
X180.0Y-75.8
X180.0Y-92.35
X180.0Y-108.9
X180.0Y-125.45
X180.0Y-142.0
X181.0Y-57.25
X181.0Y-73.8
X181.0Y-90.35
X181.0Y-106.9
X181.0Y-123.45
X181.0Y-140.0
X182.0Y-59.25
X182.0Y-75.8
X182.0Y-92.35
X182.0Y-108.9
X182.0Y-125.45
X182.0Y-142.0
X183.0Y-57.25
X183.0Y-73.8
X183.0Y-90.35
X183.0Y-106.9
X183.0Y-123.45
X183.0Y-140.0
X184.0Y-59.25
X184.0Y-75.8
X184.0Y-92.35
X184.0Y-108.9
X184.0Y-125.45
X184.0Y-142.0
X185.0Y-57.25
X185.0Y-73.8
X185.0Y-90.35
X185.0Y-106.9
X185.0Y-123.45
X185.0Y-140.0
X186.0Y-59.25
X186.0Y-75.8
X186.0Y-92.35
X186.0Y-108.9
X186.0Y-125.45
X186.0Y-142.0
X187.0Y-57.25
X187.0Y-73.8
X187.0Y-90.35
X187.0Y-106.9
X187.0Y-123.45
X187.0Y-140.0
X188.0Y-59.25
X188.0Y-75.8
X188.0Y-92.35
X188.0Y-108.9
X188.0Y-125.45
X188.0Y-142.0
X189.0Y-57.25
X189.0Y-73.8
X189.0Y-90.35
X189.0Y-106.9
X189.0Y-123.45
X189.0Y-140.0
X190.0Y-59.25
X190.0Y-75.8
X190.0Y-92.35
X190.0Y-108.9
X190.0Y-125.45
X190.0Y-142.0
X191.0Y-57.25
X191.0Y-73.8
X191.0Y-90.35
X191.0Y-106.9
X191.0Y-123.45
X191.0Y-140.0
X192.0Y-59.25
X192.0Y-75.8
X192.0Y-92.35
X192.0Y-108.9
X192.0Y-125.45
X192.0Y-142.0
X193.0Y-57.25
X193.0Y-73.8
X193.0Y-90.35
X193.0Y-106.9
X193.0Y-123.45
X193.0Y-140.0
T2
X111.76Y-118.51
X111.76Y-121.05
X114.3Y-118.51
X114.3Y-121.05
X116.84Y-118.51
X116.84Y-121.05
X119.38Y-118.51
X119.38Y-121.05
X121.92Y-118.51
X121.92Y-121.05
X124.46Y-118.51
X124.46Y-121.05
X127.0Y-118.51
X127.0Y-121.05
X129.54Y-118.51
X129.54Y-121.05
X132.08Y-118.51
X132.08Y-121.05
X134.62Y-118.51
X134.62Y-121.05
X137.16Y-118.51
X137.16Y-121.05
X139.7Y-118.51
X139.7Y-121.05
X142.24Y-118.51
X142.24Y-121.05
X144.78Y-118.51
X144.78Y-121.05
X147.32Y-118.51
X147.32Y-121.05
X149.86Y-118.51
X149.86Y-121.05
X152.4Y-118.51
X152.4Y-121.05
X154.94Y-118.51
X154.94Y-121.05
X157.48Y-118.51
X157.48Y-121.05
X160.02Y-118.51
X160.02Y-121.05
X162.56Y-118.51
X162.56Y-121.05
X165.1Y-118.51
X165.1Y-121.05
X167.64Y-118.51
X167.64Y-121.05
X170.18Y-118.51
X170.18Y-121.05
X172.72Y-118.51
X172.72Y-121.05
X175.26Y-118.51
X175.26Y-121.05
X177.8Y-118.51
X177.8Y-121.05
X180.34Y-118.51
X180.34Y-121.05
X182.88Y-118.51
X182.88Y-121.05
X185.42Y-118.51
X185.42Y-121.05
X187.96Y-118.51
X187.96Y-121.05
X190.5Y-118.51
X190.5Y-121.05
X111.76Y-52.31
X111.76Y-54.85
X114.3Y-52.31
X114.3Y-54.85
X116.84Y-52.31
X116.84Y-54.85
X119.38Y-52.31
X119.38Y-54.85
X121.92Y-52.31
X121.92Y-54.85
X124.46Y-52.31
X124.46Y-54.85
X127.0Y-52.31
X127.0Y-54.85
X129.54Y-52.31
X129.54Y-54.85
X132.08Y-52.31
X132.08Y-54.85
X134.62Y-52.31
X134.62Y-54.85
X137.16Y-52.31
X137.16Y-54.85
X139.7Y-52.31
X139.7Y-54.85
X142.24Y-52.31
X142.24Y-54.85
X144.78Y-52.31
X144.78Y-54.85
X147.32Y-52.31
X147.32Y-54.85
X149.86Y-52.31
X149.86Y-54.85
X152.4Y-52.31
X152.4Y-54.85
X154.94Y-52.31
X154.94Y-54.85
X157.48Y-52.31
X157.48Y-54.85
X160.02Y-52.31
X160.02Y-54.85
X162.56Y-52.31
X162.56Y-54.85
X165.1Y-52.31
X165.1Y-54.85
X167.64Y-52.31
X167.64Y-54.85
X170.18Y-52.31
X170.18Y-54.85
X172.72Y-52.31
X172.72Y-54.85
X175.26Y-52.31
X175.26Y-54.85
X177.8Y-52.31
X177.8Y-54.85
X180.34Y-52.31
X180.34Y-54.85
X182.88Y-52.31
X182.88Y-54.85
X185.42Y-52.31
X185.42Y-54.85
X187.96Y-52.31
X187.96Y-54.85
X190.5Y-52.31
X190.5Y-54.85
X111.76Y-135.06
X111.76Y-137.6
X114.3Y-135.06
X114.3Y-137.6
X116.84Y-135.06
X116.84Y-137.6
X119.38Y-135.06
X119.38Y-137.6
X121.92Y-135.06
X121.92Y-137.6
X124.46Y-135.06
X124.46Y-137.6
X127.0Y-135.06
X127.0Y-137.6
X129.54Y-135.06
X129.54Y-137.6
X132.08Y-135.06
X132.08Y-137.6
X134.62Y-135.06
X134.62Y-137.6
X137.16Y-135.06
X137.16Y-137.6
X139.7Y-135.06
X139.7Y-137.6
X142.24Y-135.06
X142.24Y-137.6
X144.78Y-135.06
X144.78Y-137.6
X147.32Y-135.06
X147.32Y-137.6
X149.86Y-135.06
X149.86Y-137.6
X152.4Y-135.06
X152.4Y-137.6
X154.94Y-135.06
X154.94Y-137.6
X157.48Y-135.06
X157.48Y-137.6
X160.02Y-135.06
X160.02Y-137.6
X162.56Y-135.06
X162.56Y-137.6
X165.1Y-135.06
X165.1Y-137.6
X167.64Y-135.06
X167.64Y-137.6
X170.18Y-135.06
X170.18Y-137.6
X172.72Y-135.06
X172.72Y-137.6
X175.26Y-135.06
X175.26Y-137.6
X177.8Y-135.06
X177.8Y-137.6
X180.34Y-135.06
X180.34Y-137.6
X182.88Y-135.06
X182.88Y-137.6
X185.42Y-135.06
X185.42Y-137.6
X187.96Y-135.06
X187.96Y-137.6
X190.5Y-135.06
X190.5Y-137.6
X111.76Y-101.96
X111.76Y-104.5
X114.3Y-101.96
X114.3Y-104.5
X116.84Y-101.96
X116.84Y-104.5
X119.38Y-101.96
X119.38Y-104.5
X121.92Y-101.96
X121.92Y-104.5
X124.46Y-101.96
X124.46Y-104.5
X127.0Y-101.96
X127.0Y-104.5
X129.54Y-101.96
X129.54Y-104.5
X132.08Y-101.96
X132.08Y-104.5
X134.62Y-101.96
X134.62Y-104.5
X137.16Y-101.96
X137.16Y-104.5
X139.7Y-101.96
X139.7Y-104.5
X142.24Y-101.96
X142.24Y-104.5
X144.78Y-101.96
X144.78Y-104.5
X147.32Y-101.96
X147.32Y-104.5
X149.86Y-101.96
X149.86Y-104.5
X152.4Y-101.96
X152.4Y-104.5
X154.94Y-101.96
X154.94Y-104.5
X157.48Y-101.96
X157.48Y-104.5
X160.02Y-101.96
X160.02Y-104.5
X162.56Y-101.96
X162.56Y-104.5
X165.1Y-101.96
X165.1Y-104.5
X167.64Y-101.96
X167.64Y-104.5
X170.18Y-101.96
X170.18Y-104.5
X172.72Y-101.96
X172.72Y-104.5
X175.26Y-101.96
X175.26Y-104.5
X177.8Y-101.96
X177.8Y-104.5
X180.34Y-101.96
X180.34Y-104.5
X182.88Y-101.96
X182.88Y-104.5
X185.42Y-101.96
X185.42Y-104.5
X187.96Y-101.96
X187.96Y-104.5
X190.5Y-101.96
X190.5Y-104.5
X111.76Y-68.86
X111.76Y-71.4
X114.3Y-68.86
X114.3Y-71.4
X116.84Y-68.86
X116.84Y-71.4
X119.38Y-68.86
X119.38Y-71.4
X121.92Y-68.86
X121.92Y-71.4
X124.46Y-68.86
X124.46Y-71.4
X127.0Y-68.86
X127.0Y-71.4
X129.54Y-68.86
X129.54Y-71.4
X132.08Y-68.86
X132.08Y-71.4
X134.62Y-68.86
X134.62Y-71.4
X137.16Y-68.86
X137.16Y-71.4
X139.7Y-68.86
X139.7Y-71.4
X142.24Y-68.86
X142.24Y-71.4
X144.78Y-68.86
X144.78Y-71.4
X147.32Y-68.86
X147.32Y-71.4
X149.86Y-68.86
X149.86Y-71.4
X152.4Y-68.86
X152.4Y-71.4
X154.94Y-68.86
X154.94Y-71.4
X157.48Y-68.86
X157.48Y-71.4
X160.02Y-68.86
X160.02Y-71.4
X162.56Y-68.86
X162.56Y-71.4
X165.1Y-68.86
X165.1Y-71.4
X167.64Y-68.86
X167.64Y-71.4
X170.18Y-68.86
X170.18Y-71.4
X172.72Y-68.86
X172.72Y-71.4
X175.26Y-68.86
X175.26Y-71.4
X177.8Y-68.86
X177.8Y-71.4
X180.34Y-68.86
X180.34Y-71.4
X182.88Y-68.86
X182.88Y-71.4
X185.42Y-68.86
X185.42Y-71.4
X187.96Y-68.86
X187.96Y-71.4
X190.5Y-68.86
X190.5Y-71.4
X111.76Y-85.41
X111.76Y-87.95
X114.3Y-85.41
X114.3Y-87.95
X116.84Y-85.41
X116.84Y-87.95
X119.38Y-85.41
X119.38Y-87.95
X121.92Y-85.41
X121.92Y-87.95
X124.46Y-85.41
X124.46Y-87.95
X127.0Y-85.41
X127.0Y-87.95
X129.54Y-85.41
X129.54Y-87.95
X132.08Y-85.41
X132.08Y-87.95
X134.62Y-85.41
X134.62Y-87.95
X137.16Y-85.41
X137.16Y-87.95
X139.7Y-85.41
X139.7Y-87.95
X142.24Y-85.41
X142.24Y-87.95
X144.78Y-85.41
X144.78Y-87.95
X147.32Y-85.41
X147.32Y-87.95
X149.86Y-85.41
X149.86Y-87.95
X152.4Y-85.41
X152.4Y-87.95
X154.94Y-85.41
X154.94Y-87.95
X157.48Y-85.41
X157.48Y-87.95
X160.02Y-85.41
X160.02Y-87.95
X162.56Y-85.41
X162.56Y-87.95
X165.1Y-85.41
X165.1Y-87.95
X167.64Y-85.41
X167.64Y-87.95
X170.18Y-85.41
X170.18Y-87.95
X172.72Y-85.41
X172.72Y-87.95
X175.26Y-85.41
X175.26Y-87.95
X177.8Y-85.41
X177.8Y-87.95
X180.34Y-85.41
X180.34Y-87.95
X182.88Y-85.41
X182.88Y-87.95
X185.42Y-85.41
X185.42Y-87.95
X187.96Y-85.41
X187.96Y-87.95
X190.5Y-85.41
X190.5Y-87.95
T0
M30
