G04 #@! TF.GenerationSoftware,KiCad,Pcbnew,(5.1.5)-3*
G04 #@! TF.CreationDate,2019-12-27T07:11:16+09:00*
G04 #@! TF.ProjectId,PCIeAdapter_x6,50434965-4164-4617-9074-65725f78362e,rev?*
G04 #@! TF.SameCoordinates,Original*
G04 #@! TF.FileFunction,Profile,NP*
%FSLAX46Y46*%
G04 Gerber Fmt 4.6, Leading zero omitted, Abs format (unit mm)*
G04 Created by KiCad (PCBNEW (5.1.5)-3) date 2019-12-27 07:11:16*
%MOMM*%
%LPD*%
G04 APERTURE LIST*
%ADD10C,0.050000*%
G04 APERTURE END LIST*
D10*
X122400000Y-57050000D02*
X122400000Y-66300000D01*
X109050000Y-66300000D02*
X109050000Y-49750000D01*
X120600000Y-57050000D02*
X122400000Y-57050000D01*
X193950000Y-66300000D02*
X193950000Y-49750000D01*
X120600000Y-66300000D02*
X122400000Y-66300000D01*
X109050000Y-49750000D02*
X193950000Y-49750000D01*
X120600000Y-66300000D02*
X120600000Y-57050000D01*
X122400000Y-132500000D02*
X120600000Y-132500000D01*
X122400000Y-115950000D02*
X120600000Y-115950000D01*
X120600000Y-99400000D02*
X122400000Y-99400000D01*
X120600000Y-82850000D02*
X122400000Y-82850000D01*
X122400000Y-73600000D02*
X122400000Y-82850000D01*
X122400000Y-90150000D02*
X122400000Y-99400000D01*
X122400000Y-106700000D02*
X122400000Y-115950000D01*
X122400000Y-123250000D02*
X122400000Y-132500000D01*
X109050000Y-82850000D02*
X109050000Y-66300000D01*
X109050000Y-99400000D02*
X109050000Y-82850000D01*
X109050000Y-115950000D02*
X109050000Y-99400000D01*
X109050000Y-132500000D02*
X109050000Y-115950000D01*
X120600000Y-82850000D02*
X120600000Y-73600000D01*
X120600000Y-99400000D02*
X120600000Y-90150000D01*
X120600000Y-115950000D02*
X120600000Y-106700000D01*
X120600000Y-132500000D02*
X120600000Y-123250000D01*
X120600000Y-73600000D02*
X122400000Y-73600000D01*
X120600000Y-90150000D02*
X122400000Y-90150000D01*
X120600000Y-106700000D02*
X122400000Y-106700000D01*
X120600000Y-123250000D02*
X122400000Y-123250000D01*
X193950000Y-82850000D02*
X193950000Y-66300000D01*
X193950000Y-99400000D02*
X193950000Y-82850000D01*
X193950000Y-115950000D02*
X193950000Y-99400000D01*
X193950000Y-132500000D02*
X193950000Y-115950000D01*
X122400000Y-139800000D02*
X122400000Y-149050000D01*
X122400000Y-149050000D02*
X193950000Y-149050000D01*
X120600000Y-139800000D02*
X122400000Y-139800000D01*
X120600000Y-149050000D02*
X120600000Y-139800000D01*
X109050000Y-149050000D02*
X120600000Y-149050000D01*
X193950000Y-149050000D02*
X193950000Y-132500000D01*
X109050000Y-149050000D02*
X109050000Y-132500000D01*
M02*
